<svg width="327" height="61" viewBox="0 0 327 61" fill="none" xmlns="http://www.w3.org/2000/svg">
<rect x="228" y="11" width="1" height="40" fill="#DDCFC6"/>
<path fill-rule="evenodd" clip-rule="evenodd" d="M46.2683 29.9907L50.2392 37.8975H52.6341H55.0295L59.0205 29.9907L63.0116 22.0839L61.0733 22.1013L59.1355 22.1183L56.0389 28.7476C54.3358 32.3935 52.8233 35.3765 52.6775 35.3765C52.5322 35.3765 50.9579 32.3857 49.1793 28.7302L45.9463 22.0839H44.1216H42.2969L46.2683 29.9907ZM78.1427 30.1053V38.1267H87.0873H96.0319V36.2932V34.4598H88.6526H81.2733V33.0847V31.7096H87.9817H94.6902V30.1053V28.501H87.9817H81.2733V27.1259V25.7508H88.6526H96.0319V23.9173V22.0839H87.0873H78.1427V30.1053ZM110.79 30.0631V38.1267H112.579H114.368V35.8349V33.543H117.938H121.506L123.176 35.8349C124.778 38.0346 124.933 38.1267 127.012 38.1267C129.461 38.1267 129.462 38.1405 126.824 34.8659C125.15 32.7881 125.136 32.7368 125.989 31.9456C128.374 29.7336 128.083 25.3099 125.426 23.3673C124.107 22.4029 123.421 22.2998 117.387 22.1563L110.79 22V30.0631ZM144.424 27.6989C144.763 36.6453 145.888 37.8975 153.58 37.8975C157.473 37.8975 158.314 37.7605 159.394 36.951C161.499 35.3728 162.149 33.3844 162.49 27.4697L162.8 22.0839H160.993H159.185L159.026 27.6219C158.83 34.4153 158.793 34.4598 153.415 34.4598C148.113 34.4598 147.91 34.1976 147.91 27.3551V22.0839H146.061H144.212L144.424 27.6989ZM177.428 30.1053V38.1267H178.993H180.558V32.8284C180.558 29.9146 180.727 27.637 180.933 27.7676C181.139 27.8983 182.47 29.9733 183.89 32.3783C186.113 36.1438 186.636 36.7516 187.661 36.7516C188.691 36.7516 189.206 36.1388 191.524 32.1501L194.199 27.5481L194.325 32.8376L194.45 38.1267H196.225H198V30.1053V22.0839L195.652 22.0903L193.304 22.0967L190.621 26.9004C189.145 29.5424 187.835 31.7054 187.71 31.7068C187.585 31.7082 186.216 29.5438 184.667 26.8967L181.851 22.0839H179.639H177.428V30.1053ZM123.671 26.3008C124.521 27.1722 124.323 29.3224 123.342 29.8601C122.866 30.1209 120.653 30.3345 118.423 30.3345H114.368V28.0426V25.7508H118.751C121.564 25.7508 123.326 25.9479 123.671 26.3008Z" fill="#343A45"/>
<path d="M2.4009 13.1007C2.40135 11.9663 2.87988 8.51064 3.46441 5.42217C4.04849 2.33324 4.67551 -0.0388076 4.85798 0.150956C6.39331 1.7502 11.1214 16.1672 12.1684 22.4427C13.0821 27.9202 13.0248 30.7364 11.875 36.9518C11.2556 40.3006 10.8906 44.1225 10.8687 47.4874C10.8379 52.269 10.9412 52.98 11.9618 55.0151C12.5816 56.2513 13.3164 57.3404 13.595 57.4357C13.8732 57.5306 14.6536 56.4507 15.3289 55.0357C16.4197 52.7517 16.5543 51.9656 16.5315 48.0227C16.5177 45.5806 16.0655 41.0038 15.5275 37.8525C13.926 28.4716 14.5691 21.4952 18.0002 11.0381C19.2565 7.20842 22.3469 -0.234071 22.5808 0.00565418C23.0235 0.459437 24.8858 10.643 24.9037 12.7088C24.9251 15.1327 23.7623 19.2919 21.5834 24.5874C20.7596 26.5891 20.1568 28.2268 20.244 28.2268C20.3308 28.2268 21.6657 26.0665 23.2105 23.4259C24.897 20.5437 26.1818 18.7918 26.426 19.0421C26.6501 19.2717 26.9319 21.3917 27.0522 23.7541C27.3017 28.6467 27.0651 29.3645 23.9882 33.0397C20.4685 37.2443 20.536 37.1434 21.6344 36.553C22.1626 36.2693 23.541 35.2967 24.697 34.3923C25.8531 33.4879 26.9202 32.8719 27.0683 33.0232C27.2163 33.1749 27.0996 34.478 26.8093 35.9196C26.2762 38.5666 24.8961 40.3822 21.7918 42.5201C20.7265 43.2534 20.7887 43.2599 23.1125 42.6507C24.4542 42.2991 25.6313 42.0933 25.7288 42.1932C25.8263 42.2932 25.6702 43.1072 25.3818 44.0024C24.7699 45.9028 23.0141 47.4782 21.5079 47.4782C20.1107 47.4782 20.1514 48.2185 21.5682 48.5833C22.1832 48.7415 22.6863 49.0554 22.6863 49.2805C22.6863 49.8461 17.862 56.4218 15.6018 58.9374L13.7484 61L11.273 58.3296C9.91166 56.861 7.78375 54.1795 6.54403 52.3708L4.29044 49.0825L5.7739 48.4467L7.25691 47.8114L5.29179 47.3008C3.74482 46.8993 3.15001 46.451 2.49661 45.1937C1.80027 43.8539 1.37764 41.965 1.77836 41.9828C1.83963 41.9856 2.87944 42.2954 4.08829 42.6713C5.29715 43.0472 6.35351 43.2855 6.4358 43.2016C6.51809 43.1173 5.57086 42.3747 4.33114 41.5511C1.45591 39.642 0.777012 38.5446 0.447852 35.2737L0.180857 32.6239L2.3772 34.2589C3.58516 35.1578 5.07667 36.1533 5.69161 36.471C6.6366 36.9587 6.55834 36.7731 5.18624 35.2728C2.03149 31.8236 0.387476 29.1953 0.0829131 27.1162C-0.28784 24.5814 0.666994 18.3101 1.32174 18.9811C1.57174 19.2373 2.9577 21.4742 4.40135 23.9516C7.23544 28.8158 7.62409 29.1642 5.98902 25.3744C4.08919 20.9718 2.40045 15.1941 2.4009 13.1007Z" fill="#DDCFC6"/>
<path d="M264.389 23C264.278 22.7055 264.173 22.4176 264.075 22.1362C263.977 21.8483 263.875 21.5571 263.77 21.2626H260.688L260.07 23H259.079C259.34 22.2802 259.586 21.616 259.815 21.0074C260.044 20.3923 260.266 19.8099 260.482 19.2602C260.705 18.7105 260.924 18.187 261.14 17.6897C261.356 17.1858 261.582 16.6885 261.817 16.1977H262.691C262.926 16.6885 263.152 17.1858 263.368 17.6897C263.584 18.187 263.8 18.7105 264.016 19.2602C264.238 19.8099 264.464 20.3923 264.693 21.0074C264.922 21.616 265.168 22.2802 265.429 23H264.389ZM263.496 20.4774C263.286 19.908 263.077 19.3584 262.867 18.8283C262.665 18.2917 262.452 17.778 262.229 17.2872C262 17.778 261.781 18.2917 261.572 18.8283C261.369 19.3584 261.166 19.908 260.963 20.4774H263.496ZM270.265 16.1977V17.0222H268.125V23H267.173V17.0222H265.033V16.1977H270.265ZM271.27 23V16.1977H275.422V17.0124H272.222V19.0344H275.069V19.8295H272.222V22.1853H275.668V23H271.27ZM279.204 17.0124C279.191 17.3789 279.178 17.7355 279.165 18.0823C279.152 18.4226 279.132 18.7563 279.106 19.0835C279.08 19.4042 279.041 19.7183 278.988 20.0258C278.936 20.3334 278.864 20.6344 278.772 20.9289C278.681 21.2234 278.566 21.5015 278.429 21.7632C278.298 22.0184 278.131 22.2442 277.928 22.4405C277.732 22.6303 277.496 22.7841 277.221 22.9018C276.953 23.0196 276.636 23.0851 276.269 23.0982L276.161 22.2736C276.619 22.2213 276.973 22.0773 277.221 21.8417C277.477 21.6062 277.686 21.2463 277.85 20.762C278.033 20.2123 278.147 19.5514 278.193 18.7792C278.246 18.0005 278.272 17.14 278.272 16.1977H282.129V23H281.177V17.0124H279.204ZM288.657 20.87C288.657 21.6029 288.392 22.1526 287.862 22.519C287.332 22.8855 286.586 23.0687 285.624 23.0687C285.349 23.0687 285.048 23.0556 284.721 23.0294C284.394 23.0098 284.093 22.9673 283.818 22.9018V16.1977H284.77V18.6713C284.901 18.6582 285.032 18.6516 285.163 18.6516C285.3 18.6451 285.434 18.6418 285.565 18.6418C287.626 18.6418 288.657 19.3845 288.657 20.87ZM287.656 20.87C287.656 20.5951 287.604 20.3661 287.499 20.1829C287.394 19.9997 287.247 19.8557 287.057 19.751C286.874 19.6463 286.651 19.5743 286.39 19.535C286.134 19.4892 285.85 19.4663 285.536 19.4663C285.411 19.4663 285.284 19.4663 285.153 19.4663C285.029 19.4663 284.901 19.4729 284.77 19.486V22.2049C284.888 22.218 285.019 22.2278 285.163 22.2344C285.313 22.2344 285.493 22.2344 285.703 22.2344C285.958 22.2344 286.203 22.2147 286.439 22.1755C286.674 22.1362 286.88 22.0642 287.057 21.9595C287.24 21.8548 287.384 21.7174 287.489 21.5473C287.6 21.3706 287.656 21.1448 287.656 20.87ZM289.866 23V16.1977H294.019V17.0124H290.819V19.0344H293.665V19.8295H290.819V22.1853H294.264V23H289.866ZM265.017 28.1977V35H264.065V29.0124H260.796V35H259.844V28.1977H265.017ZM268.514 28.129C269.469 28.129 270.202 28.3122 270.712 28.6787C271.229 29.0386 271.488 29.5784 271.488 30.2983C271.488 30.6909 271.416 31.0279 271.272 31.3093C271.134 31.5841 270.932 31.8099 270.663 31.9866C270.401 32.1567 270.081 32.281 269.701 32.3596C269.322 32.4381 268.893 32.4774 268.415 32.4774H267.66V35H266.707V28.2959C266.976 28.2304 267.274 28.1879 267.601 28.1683C267.934 28.1421 268.239 28.129 268.514 28.129ZM268.592 28.9633C268.186 28.9633 267.876 28.9731 267.66 28.9928V31.6627H268.376C268.703 31.6627 268.998 31.643 269.26 31.6038C269.521 31.558 269.741 31.486 269.917 31.3878C270.1 31.2831 270.241 31.1424 270.339 30.9657C270.437 30.7891 270.487 30.5633 270.487 30.2884C270.487 30.0267 270.434 29.8107 270.33 29.6406C270.231 29.4705 270.094 29.3363 269.917 29.2382C269.747 29.1335 269.548 29.0615 269.318 29.0222C269.089 28.983 268.847 28.9633 268.592 28.9633ZM272.679 35V28.1977H273.612V33.2332C273.821 32.8863 274.076 32.4904 274.377 32.0455C274.685 31.6005 275.009 31.149 275.349 30.6909C275.696 30.2263 276.043 29.778 276.39 29.3461C276.743 28.9077 277.074 28.5249 277.381 28.1977H278.137V35H277.204V29.6897C277.021 29.8991 276.822 30.1412 276.606 30.4161C276.39 30.6909 276.167 30.9854 275.938 31.2995C275.709 31.607 275.477 31.9277 275.241 32.2614C275.012 32.5951 274.79 32.9256 274.574 33.2528C274.358 33.5734 274.155 33.8843 273.965 34.1853C273.782 34.4863 273.618 34.7579 273.474 35H272.679ZM281.627 28.129C282.582 28.129 283.315 28.3122 283.826 28.6787C284.342 29.0386 284.601 29.5784 284.601 30.2983C284.601 30.6909 284.529 31.0279 284.385 31.3093C284.248 31.5841 284.045 31.8099 283.776 31.9866C283.515 32.1567 283.194 32.281 282.814 32.3596C282.435 32.4381 282.006 32.4774 281.529 32.4774H280.773V35H279.821V28.2959C280.089 28.2304 280.387 28.1879 280.714 28.1683C281.048 28.1421 281.352 28.129 281.627 28.129ZM281.705 28.9633C281.3 28.9633 280.989 28.9731 280.773 28.9928V31.6627H281.489C281.817 31.6627 282.111 31.643 282.373 31.6038C282.635 31.558 282.854 31.486 283.03 31.3878C283.214 31.2831 283.354 31.1424 283.453 30.9657C283.551 30.7891 283.6 30.5633 283.6 30.2884C283.6 30.0267 283.547 29.8107 283.443 29.6406C283.345 29.4705 283.207 29.3363 283.03 29.2382C282.86 29.1335 282.661 29.0615 282.432 29.0222C282.203 28.983 281.961 28.9633 281.705 28.9633ZM285.518 31.5939C285.518 31.0115 285.603 30.4979 285.773 30.0529C285.95 29.6079 286.185 29.2382 286.48 28.9437C286.781 28.6427 287.128 28.4169 287.52 28.2664C287.919 28.1159 288.341 28.0406 288.786 28.0406C289.225 28.0406 289.637 28.1159 290.023 28.2664C290.416 28.4169 290.759 28.6427 291.054 28.9437C291.348 29.2382 291.581 29.6079 291.751 30.0529C291.927 30.4979 292.016 31.0115 292.016 31.5939C292.016 32.1763 291.927 32.69 291.751 33.135C291.581 33.58 291.348 33.953 291.054 34.254C290.759 34.5485 290.416 34.771 290.023 34.9215C289.637 35.072 289.225 35.1472 288.786 35.1472C288.341 35.1472 287.919 35.072 287.52 34.9215C287.128 34.771 286.781 34.5485 286.48 34.254C286.185 33.953 285.95 33.58 285.773 33.135C285.603 32.69 285.518 32.1763 285.518 31.5939ZM286.519 31.5939C286.519 32.0062 286.571 32.3825 286.676 32.7228C286.781 33.0565 286.928 33.3411 287.118 33.5767C287.314 33.8123 287.55 33.9955 287.824 34.1264C288.106 34.2507 288.42 34.3129 288.767 34.3129C289.114 34.3129 289.424 34.2507 289.699 34.1264C289.974 33.9955 290.206 33.8123 290.396 33.5767C290.592 33.3411 290.743 33.0565 290.848 32.7228C290.952 32.3825 291.005 32.0062 291.005 31.5939C291.005 31.1817 290.952 30.8087 290.848 30.4749C290.743 30.1347 290.592 29.8467 290.396 29.6112C290.206 29.3756 289.974 29.1956 289.699 29.0713C289.424 28.9404 289.114 28.875 288.767 28.875C288.42 28.875 288.106 28.9404 287.824 29.0713C287.55 29.1956 287.314 29.3756 287.118 29.6112C286.928 29.8467 286.781 30.1347 286.676 30.4749C286.571 30.8087 286.519 31.1817 286.519 31.5939ZM293.437 35V36.8159H292.534V34.1853H293.251C293.585 33.8058 293.84 33.3869 294.017 32.9289C294.2 32.4643 294.331 31.9768 294.409 31.4663C294.494 30.9494 294.543 30.4161 294.556 29.8664C294.576 29.3167 294.589 28.7605 294.596 28.1977H298.443V34.1853H299.297V36.8159H298.394V35H293.437ZM295.528 29.0124C295.509 29.4443 295.486 29.886 295.459 30.3375C295.44 30.7825 295.391 31.2275 295.312 31.6725C295.24 32.1109 295.132 32.5428 294.988 32.9681C294.844 33.3935 294.641 33.7992 294.38 34.1853H297.491V29.0124H295.528ZM304.595 28.1977H305.547V35H304.595V31.859H301.267V35H300.315V28.1977H301.267V31.0344H304.595V28.1977ZM306.961 31.5939C306.961 31.0115 307.046 30.4979 307.216 30.0529C307.393 29.6079 307.628 29.2382 307.923 28.9437C308.224 28.6427 308.571 28.4169 308.963 28.2664C309.362 28.1159 309.785 28.0406 310.23 28.0406C310.668 28.0406 311.08 28.1159 311.466 28.2664C311.859 28.4169 312.202 28.6427 312.497 28.9437C312.791 29.2382 313.024 29.6079 313.194 30.0529C313.371 30.4979 313.459 31.0115 313.459 31.5939C313.459 32.1763 313.371 32.69 313.194 33.135C313.024 33.58 312.791 33.953 312.497 34.254C312.202 34.5485 311.859 34.771 311.466 34.9215C311.08 35.072 310.668 35.1472 310.23 35.1472C309.785 35.1472 309.362 35.072 308.963 34.9215C308.571 34.771 308.224 34.5485 307.923 34.254C307.628 33.953 307.393 33.58 307.216 33.135C307.046 32.69 306.961 32.1763 306.961 31.5939ZM307.962 31.5939C307.962 32.0062 308.014 32.3825 308.119 32.7228C308.224 33.0565 308.371 33.3411 308.561 33.5767C308.757 33.8123 308.993 33.9955 309.268 34.1264C309.549 34.2507 309.863 34.3129 310.21 34.3129C310.557 34.3129 310.868 34.2507 311.142 34.1264C311.417 33.9955 311.65 33.8123 311.839 33.5767C312.036 33.3411 312.186 33.0565 312.291 32.7228C312.396 32.3825 312.448 32.0062 312.448 31.5939C312.448 31.1817 312.396 30.8087 312.291 30.4749C312.186 30.1347 312.036 29.8467 311.839 29.6112C311.65 29.3756 311.417 29.1956 311.142 29.0713C310.868 28.9404 310.557 28.875 310.21 28.875C309.863 28.875 309.549 28.9404 309.268 29.0713C308.993 29.1956 308.757 29.3756 308.561 29.6112C308.371 29.8467 308.224 30.1347 308.119 30.4749C308.014 30.8087 307.962 31.1817 307.962 31.5939ZM318.871 28.1977V29.0222H315.828V35H314.876V28.1977H318.871ZM319.326 31.5939C319.326 31.0115 319.411 30.4979 319.582 30.0529C319.758 29.6079 319.994 29.2382 320.288 28.9437C320.589 28.6427 320.936 28.4169 321.329 28.2664C321.728 28.1159 322.15 28.0406 322.595 28.0406C323.033 28.0406 323.446 28.1159 323.832 28.2664C324.224 28.4169 324.568 28.6427 324.862 28.9437C325.157 29.2382 325.389 29.6079 325.559 30.0529C325.736 30.4979 325.824 31.0115 325.824 31.5939C325.824 32.1763 325.736 32.69 325.559 33.135C325.389 33.58 325.157 33.953 324.862 34.254C324.568 34.5485 324.224 34.771 323.832 34.9215C323.446 35.072 323.033 35.1472 322.595 35.1472C322.15 35.1472 321.728 35.072 321.329 34.9215C320.936 34.771 320.589 34.5485 320.288 34.254C319.994 33.953 319.758 33.58 319.582 33.135C319.411 32.69 319.326 32.1763 319.326 31.5939ZM320.328 31.5939C320.328 32.0062 320.38 32.3825 320.485 32.7228C320.589 33.0565 320.737 33.3411 320.926 33.5767C321.123 33.8123 321.358 33.9955 321.633 34.1264C321.914 34.2507 322.229 34.3129 322.575 34.3129C322.922 34.3129 323.233 34.2507 323.508 34.1264C323.783 33.9955 324.015 33.8123 324.205 33.5767C324.401 33.3411 324.552 33.0565 324.656 32.7228C324.761 32.3825 324.813 32.0062 324.813 31.5939C324.813 31.1817 324.761 30.8087 324.656 30.4749C324.552 30.1347 324.401 29.8467 324.205 29.6112C324.015 29.3756 323.783 29.1956 323.508 29.0713C323.233 28.9404 322.922 28.875 322.575 28.875C322.229 28.875 321.914 28.9404 321.633 29.0713C321.358 29.1956 321.123 29.3756 320.926 29.6112C320.737 29.8467 320.589 30.1347 320.485 30.4749C320.38 30.8087 320.328 31.1817 320.328 31.5939ZM264.88 40.1977C264.677 40.4202 264.448 40.6689 264.193 40.9437C263.937 41.212 263.669 41.4901 263.388 41.778C263.113 42.0594 262.838 42.3375 262.563 42.6124C262.288 42.8872 262.03 43.1424 261.788 43.378C262.069 43.5743 262.367 43.8164 262.681 44.1044C262.995 44.3923 263.303 44.6998 263.604 45.027C263.905 45.3542 264.186 45.688 264.448 46.0282C264.716 46.3685 264.939 46.6924 265.115 47H263.996C263.8 46.6924 263.574 46.3849 263.319 46.0773C263.064 45.7632 262.792 45.4655 262.504 45.1841C262.223 44.8962 261.935 44.6311 261.64 44.389C261.353 44.1469 261.071 43.9408 260.796 43.7706V47H259.844V40.1977H260.796V43.2013C261.025 42.9854 261.277 42.7432 261.552 42.4749C261.827 42.2001 262.098 41.9253 262.367 41.6504C262.635 41.3756 262.887 41.1138 263.123 40.8652C263.365 40.61 263.568 40.3875 263.731 40.1977H264.88ZM270.898 47C270.786 46.7055 270.682 46.4176 270.583 46.1362C270.485 45.8483 270.384 45.5571 270.279 45.2626H267.197L266.579 47H265.587C265.849 46.2802 266.094 45.616 266.323 45.0074C266.552 44.3923 266.775 43.8099 266.991 43.2602C267.213 42.7105 267.433 42.187 267.649 41.6897C267.864 41.1858 268.09 40.6885 268.326 40.1977H269.199C269.435 40.6885 269.661 41.1858 269.877 41.6897C270.093 42.187 270.309 42.7105 270.525 43.2602C270.747 43.8099 270.973 44.3923 271.202 45.0074C271.431 45.616 271.676 46.2802 271.938 47H270.898ZM270.004 44.4774C269.795 43.908 269.585 43.3584 269.376 42.8283C269.173 42.2917 268.961 41.778 268.738 41.2872C268.509 41.778 268.29 42.2917 268.08 42.8283C267.878 43.3584 267.675 43.908 267.472 44.4774H270.004ZM275.914 46.0577C275.849 45.9006 275.76 45.7011 275.649 45.4589C275.544 45.2168 275.43 44.9551 275.306 44.6737C275.181 44.3923 275.047 44.1044 274.903 43.8099C274.766 43.5089 274.635 43.2275 274.511 42.9657C274.386 42.6974 274.268 42.4586 274.157 42.2492C274.052 42.0398 273.967 41.8795 273.902 41.7682C273.83 42.5404 273.771 43.378 273.725 44.281C273.679 45.1775 273.64 46.0839 273.607 47H272.675C272.701 46.4111 272.731 45.8188 272.763 45.2234C272.796 44.6213 272.832 44.0324 272.871 43.4565C272.917 42.8741 272.963 42.3081 273.009 41.7584C273.061 41.2087 273.117 40.6885 273.176 40.1977H274.01C274.187 40.4856 274.376 40.8259 274.579 41.2185C274.782 41.6112 274.985 42.0234 275.188 42.4553C275.391 42.8807 275.587 43.3093 275.777 43.7412C275.967 44.1665 276.14 44.5559 276.297 44.9092C276.454 44.5559 276.627 44.1665 276.817 43.7412C277.007 43.3093 277.203 42.8807 277.406 42.4553C277.609 42.0234 277.812 41.6112 278.015 41.2185C278.218 40.8259 278.407 40.4856 278.584 40.1977H279.418C279.641 42.3899 279.808 44.6573 279.919 47H278.987C278.954 46.0839 278.915 45.1775 278.869 44.281C278.823 43.378 278.764 42.5404 278.692 41.7682C278.627 41.8795 278.538 42.0398 278.427 42.2492C278.322 42.4586 278.208 42.6974 278.083 42.9657C277.959 43.2275 277.825 43.5089 277.681 43.8099C277.544 44.1044 277.413 44.3923 277.288 44.6737C277.164 44.9551 277.046 45.2168 276.935 45.4589C276.83 45.7011 276.745 45.9006 276.68 46.0577H275.914ZM285.692 40.1977H286.644V47H285.692V43.859H282.364V47H281.412V40.1977H282.364V43.0344H285.692V40.1977ZM290.973 40.9633C290.725 40.9633 290.486 40.983 290.257 41.0222C290.034 41.0615 289.835 41.1302 289.658 41.2284C289.481 41.3265 289.341 41.4607 289.236 41.6308C289.131 41.8009 289.079 42.0136 289.079 42.2688C289.079 42.7531 289.233 43.0901 289.54 43.2798C289.854 43.4631 290.322 43.5547 290.944 43.5547H291.925V40.9928C291.853 40.9928 291.768 40.9895 291.67 40.983C291.585 40.9764 291.484 40.9731 291.366 40.9731C291.255 40.9666 291.124 40.9633 290.973 40.9633ZM291.052 40.129C291.189 40.129 291.336 40.1323 291.493 40.1388C291.65 40.1453 291.808 40.1552 291.965 40.1683C292.128 40.1813 292.289 40.1977 292.446 40.2173C292.603 40.237 292.747 40.2631 292.877 40.2959V47H291.925V44.3399H291.111C291.019 44.3399 290.921 44.3399 290.816 44.3399C290.718 44.3334 290.584 44.3203 290.414 44.3007C290.296 44.4577 290.168 44.641 290.031 44.8504C289.893 45.0598 289.756 45.2822 289.619 45.5178C289.481 45.7534 289.344 45.9988 289.206 46.254C289.076 46.5092 288.954 46.7579 288.843 47H287.842C287.947 46.7448 288.071 46.4798 288.215 46.2049C288.359 45.9301 288.506 45.6683 288.657 45.4197C288.814 45.171 288.961 44.942 289.098 44.7326C289.242 44.5166 289.367 44.3399 289.471 44.2025C289.321 44.1567 289.164 44.0913 289 44.0062C288.837 43.9211 288.686 43.8033 288.549 43.6528C288.411 43.5023 288.297 43.3158 288.205 43.0933C288.12 42.8643 288.078 42.5927 288.078 42.2786C288.078 41.9253 288.146 41.6144 288.284 41.3461C288.421 41.0778 288.617 40.8554 288.873 40.6787C289.134 40.4954 289.448 40.358 289.815 40.2664C290.181 40.1748 290.594 40.129 291.052 40.129Z" fill="#8B8B8B"/>
</svg>
