<svg width="34" height="34" viewBox="0 0 34 34" fill="none" xmlns="http://www.w3.org/2000/svg">
<path fill-rule="evenodd" clip-rule="evenodd" d="M22.2793 2.818C20.865 2.93826 19.3062 3.63978 18.3115 4.6036C17.9017 5.00077 17.8436 5.17994 18.036 5.45459C18.1755 5.65375 18.4192 5.74339 18.6168 5.66822C18.7025 5.63562 18.949 5.45393 19.1646 5.26447C20.6618 3.9487 22.8845 3.50776 24.8067 4.14513C25.5402 4.38838 26.2438 4.78575 26.7885 5.26447C27.0041 5.45393 27.2506 5.63562 27.3363 5.66822C27.6433 5.78497 28.0234 5.49198 28.0234 5.1387C28.0234 4.91684 27.4515 4.37018 26.7214 3.89431C25.4138 3.04199 23.9153 2.67888 22.2793 2.818ZM22.3917 4.93756C21.8496 5.00941 21.307 5.16878 20.8876 5.37936C20.4416 5.60321 19.7659 6.08652 19.5948 6.304C19.3974 6.55495 19.4137 6.88233 19.632 7.05406C19.9091 7.27207 20.1312 7.23083 20.5307 6.88718C21.2412 6.27604 22.0382 5.98511 22.9948 5.98777C23.9465 5.99043 24.8028 6.32153 25.5098 6.96022C25.8085 7.2301 26.0603 7.25925 26.3211 7.05406C26.5395 6.88233 26.5557 6.55495 26.3583 6.304C26.1843 6.0828 25.5092 5.60208 25.0454 5.36913C24.3342 5.01193 23.2099 4.82911 22.3917 4.93756ZM22.4723 7.06096C21.8614 7.18209 21.1737 7.59998 21.0058 7.95213C20.916 8.1402 20.9144 8.19551 20.9936 8.36073C21.0991 8.5808 21.3936 8.74562 21.5773 8.68738C21.6465 8.6654 21.8153 8.55836 21.9522 8.44952C22.5854 7.94629 23.4243 7.96475 24.0608 8.496C24.446 8.81754 24.9688 8.60391 24.9688 8.12499C24.9688 7.72449 24.2302 7.20692 23.449 7.05983C23.0442 6.98366 22.8611 6.98386 22.4723 7.06096ZM14.0117 7.92019C12.1949 8.31126 8.76396 9.7787 5.25107 11.6672L4.55879 12.0394H3.84731C3.26666 12.0394 3.1104 12.0608 2.99751 12.1556C2.85029 12.2793 0.929688 17.3897 0.929688 17.6577C0.929688 18.0143 1.01024 18.0452 4.37657 18.9782C6.14457 19.4682 7.63871 19.8877 7.69688 19.9104C7.77139 19.9395 7.70372 19.9946 7.46871 20.0962C5.81002 20.8132 4.62533 22.2141 4.14581 24.0257C3.97534 24.6698 3.97408 26.1002 4.14348 26.7379C4.44895 27.888 4.85018 28.5807 5.70895 29.441C6.46179 30.1952 7.00672 30.5384 7.97373 30.8672C10.0161 31.5619 12.3529 30.9796 13.8864 29.3939C14.5176 28.7411 14.9387 28.0667 15.2064 27.2796L15.3193 26.9476L17.4128 26.93L19.5064 26.9125L19.5481 27.1209C19.6178 27.4693 20.1074 28.38 20.5033 28.8976C21.4771 30.1709 23.0886 31.0261 24.7234 31.1373C26.623 31.2666 28.552 30.3984 29.6999 28.8976C30.0953 28.3806 30.5853 27.4694 30.6548 27.1218L30.6963 26.9144H31.7203C32.719 26.9144 32.7484 26.9103 32.9073 26.7513L33.0703 26.5884V22.1331V17.6779L32.9073 17.5149C32.7443 17.3519 32.7441 17.3519 31.3135 17.3519H29.8828V16.4524C29.8828 15.5859 29.8768 15.5469 29.7198 15.3899L29.5568 15.2269H27.1255H24.6942L24.7405 15.0775C24.766 14.9952 24.8731 14.7562 24.9784 14.5462L25.1699 14.1644H28.4259H31.6818L31.8448 14.0013L32.0078 13.8384V12.0394V10.2404L31.8448 10.0774L31.6818 9.91437H27.2298H22.7777L22.5065 10.1594C22.259 10.3831 22.2227 10.3965 22.0913 10.3135C22.0121 10.2636 21.4243 9.96232 20.7852 9.6441C18.8561 8.6836 17.3085 8.11901 15.9786 7.89064C15.2237 7.76102 14.7159 7.76865 14.0117 7.92019ZM16.0673 8.98409C17.3507 9.24559 19.7841 10.2197 21.1723 11.0276L21.4599 11.195L21.0414 11.6172L20.623 12.0394L13.748 12.0342L6.87305 12.0289L8.26758 11.3365C10.6514 10.1527 12.9749 9.22083 14.197 8.95839C14.8218 8.82425 15.3162 8.83102 16.0673 8.98409ZM30.9453 12.0394V13.1019H27.7984C24.897 13.1019 24.6409 13.111 24.5163 13.2181C24.4419 13.282 23.4352 15.3066 22.2792 17.7171C21.1231 20.1277 20.1503 22.1276 20.1175 22.1615C20.081 22.1991 19.3 22.0127 18.1138 21.6833C17.0447 21.3865 13.0324 20.2731 9.19766 19.2094C5.3629 18.1456 2.21385 17.2637 2.19977 17.2496C2.1857 17.2355 2.51421 16.2966 2.92984 15.1631L3.68555 13.1023L12.3806 13.1021L21.0758 13.1019L22.1424 12.0399L23.209 10.978L27.0771 10.9774L30.9453 10.9769V12.0394ZM28.8203 17.1888C28.8203 18.0554 28.8263 18.0944 28.9833 18.2513C29.1463 18.4144 29.1465 18.4144 30.5771 18.4144H32.0078V22.1331V25.8519H31.4865H30.965L30.9258 25.1048C30.8446 23.5605 30.2711 22.242 29.2256 21.1966C28.4721 20.4431 27.5828 19.9366 26.5503 19.673C25.2337 19.3368 23.8262 19.4678 22.6279 20.0379C22.4544 20.1204 22.3121 20.1699 22.3116 20.1478C22.311 20.1258 22.7219 19.249 23.2247 18.1994L24.1387 16.2911L26.4795 16.2902L28.8203 16.2894V17.1888ZM25.9756 20.6331C26.6543 20.7637 27.1406 20.9591 27.7052 21.3281C28.6686 21.9578 29.4244 23.0017 29.7305 24.1253C29.9163 24.8071 29.8868 26.0662 29.6696 26.7262C29.4097 27.5159 29.0604 28.0805 28.4609 28.68C27.8615 29.2794 27.2969 29.6287 26.5072 29.8886C25.8472 30.1059 24.588 30.1353 23.9062 29.9496C22.7827 29.6435 21.7387 28.8876 21.1091 27.9242C20.1278 26.4228 20.0718 24.4704 20.9658 22.93C21.2746 22.3982 22.1485 21.5126 22.6617 21.2116C23.6718 20.6192 24.8417 20.415 25.9756 20.6331ZM10.9854 20.8359C12.5854 21.268 13.8766 22.5676 14.3198 24.1917C14.4797 24.7777 14.482 25.9944 14.3243 26.5748C13.8796 28.2112 12.5868 29.5061 10.957 29.9479C10.3687 30.1073 9.15563 30.106 8.56641 29.9452C7.57669 29.6751 6.6134 29.0314 6.02238 28.2452C3.92746 25.4584 5.41875 21.4892 8.83203 20.7671C9.36587 20.6543 10.4395 20.6885 10.9854 20.8359ZM17.0739 22.5033L19.6381 23.2132L19.5174 23.6194C19.3506 24.1805 19.2589 24.8007 19.2583 25.3704L19.2578 25.8519H17.4084H15.559L15.5185 25.138C15.4963 24.7453 15.4286 24.2299 15.3682 23.9925C15.2414 23.4945 14.8437 22.6055 14.561 22.188C14.2514 21.7309 14.2453 21.716 14.3853 21.7569C14.4537 21.7769 15.6636 22.1128 17.0739 22.5033ZM9.03284 22.7708C8.53792 22.9038 8.19513 23.1168 7.79835 23.5379C7.39221 23.9689 7.18403 24.3832 7.08601 24.9555C6.93627 25.8298 7.23463 26.7051 7.89683 27.3337C8.34129 27.7555 8.74989 27.9633 9.33021 28.0627C11.1173 28.3689 12.7442 26.7464 12.4387 24.9628C12.1635 23.3565 10.5995 22.3498 9.03284 22.7708ZM24.4785 22.734C24.0583 22.8396 23.4603 23.1935 23.1699 23.5085C23.0209 23.6702 22.8042 24.0023 22.6887 24.2462C22.4984 24.6479 22.4785 24.7497 22.4785 25.3241C22.4785 25.9227 22.4925 25.9865 22.7265 26.4602C23.0252 27.0646 23.4097 27.441 24.0271 27.7335C24.4283 27.9235 24.5311 27.9437 25.1016 27.9437C25.6721 27.9437 25.7749 27.9235 26.176 27.7335C26.7934 27.441 27.1779 27.0646 27.4766 26.4602C27.7109 25.986 27.7246 25.9233 27.7246 25.3206C27.7246 24.718 27.7109 24.6552 27.4766 24.1811C27.0279 23.2731 26.2307 22.7403 25.2509 22.6937C24.9679 22.6802 24.6203 22.6984 24.4785 22.734ZM10.3264 23.8368C10.939 24.0456 11.4219 24.7289 11.4219 25.387C11.4219 26.2625 10.6372 27.0472 9.76172 27.0472C9.36063 27.0472 8.89605 26.8491 8.59788 26.5509C7.94777 25.9007 7.94823 24.8728 8.59908 24.222C9.06027 23.7607 9.69066 23.6202 10.3264 23.8368ZM25.5919 23.8076C26.1626 23.9762 26.6953 24.7067 26.6953 25.3206C26.6953 26.1435 25.9244 26.9144 25.1016 26.9144C24.6839 26.9144 24.3475 26.7625 24.0036 26.4186C23.3318 25.7468 23.3318 24.8952 24.0036 24.2219C24.4694 23.7551 24.9712 23.6242 25.5919 23.8076Z" fill="#343A45"/>
</svg>
