<svg width="198" height="61" viewBox="0 0 198 61" fill="none" xmlns="http://www.w3.org/2000/svg">
<path fill-rule="evenodd" clip-rule="evenodd" d="M46.2683 30.1748L50.2392 38.0816H52.6341H55.0295L59.0205 30.1748L63.0116 22.268L61.0733 22.2854L59.1355 22.3023L56.0389 28.9317C54.3358 32.5775 52.8233 35.5606 52.6775 35.5606C52.5322 35.5606 50.9579 32.5697 49.1793 28.9143L45.9463 22.268H44.1216H42.2969L46.2683 30.1748ZM78.1427 30.2894V38.3108H87.0873H96.0319V36.4773V34.6439H88.6526H81.2733V33.2688V31.8937H87.9817H94.6902V30.2894V28.6851H87.9817H81.2733V27.31V25.9349H88.6526H96.0319V24.1014V22.268H87.0873H78.1427V30.2894ZM110.79 30.2472V38.3108H112.579H114.368V36.019V33.7271H117.938H121.506L123.176 36.019C124.778 38.2187 124.933 38.3108 127.012 38.3108C129.461 38.3108 129.462 38.3245 126.824 35.05C125.15 32.9722 125.136 32.9209 125.989 32.1297C128.374 29.9176 128.083 25.4939 125.426 23.5514C124.107 22.587 123.421 22.4839 117.387 22.3404L110.79 22.1841V30.2472ZM144.424 27.8829C144.763 36.8293 145.888 38.0816 153.58 38.0816C157.473 38.0816 158.314 37.9445 159.394 37.1351C161.499 35.5569 162.149 33.5685 162.49 27.6538L162.8 22.268H160.993H159.185L159.026 27.8059C158.83 34.5994 158.793 34.6439 153.415 34.6439C148.113 34.6439 147.91 34.3817 147.91 27.5392V22.268H146.061H144.212L144.424 27.8829ZM177.428 30.2894V38.3108H178.993H180.558V33.0125C180.558 30.0987 180.727 27.8211 180.933 27.9517C181.139 28.0823 182.47 30.1574 183.89 32.5624C186.113 36.3279 186.636 36.9357 187.661 36.9357C188.691 36.9357 189.206 36.3228 191.524 32.3341L194.199 27.7321L194.325 33.0217L194.45 38.3108H196.225H198V30.2894V22.268L195.652 22.2744L193.304 22.2808L190.621 27.0845C189.145 29.7265 187.835 31.8895 187.71 31.8909C187.585 31.8923 186.216 29.7279 184.667 27.0808L181.851 22.268H179.639H177.428V30.2894ZM123.671 26.4849C124.521 27.3563 124.323 29.5065 123.342 30.0441C122.866 30.305 120.653 30.5186 118.423 30.5186H114.368V28.2267V25.9349H118.751C121.564 25.9349 123.326 26.132 123.671 26.4849Z" fill="#343A45"/>
<path d="M2.4009 13.1007C2.40135 11.9663 2.87988 8.51064 3.46441 5.42217C4.04849 2.33324 4.67551 -0.0388076 4.85798 0.150956C6.39331 1.7502 11.1214 16.1672 12.1684 22.4427C13.0821 27.9202 13.0248 30.7364 11.875 36.9518C11.2556 40.3006 10.8906 44.1225 10.8687 47.4874C10.8379 52.269 10.9412 52.98 11.9618 55.0151C12.5816 56.2513 13.3164 57.3404 13.595 57.4357C13.8732 57.5306 14.6536 56.4507 15.3289 55.0357C16.4197 52.7517 16.5543 51.9656 16.5315 48.0227C16.5177 45.5806 16.0655 41.0038 15.5275 37.8525C13.926 28.4716 14.5691 21.4952 18.0002 11.0381C19.2565 7.20842 22.3469 -0.234071 22.5808 0.00565418C23.0235 0.459437 24.8858 10.643 24.9037 12.7088C24.9251 15.1327 23.7623 19.2919 21.5834 24.5874C20.7596 26.5891 20.1568 28.2268 20.244 28.2268C20.3308 28.2268 21.6657 26.0665 23.2105 23.4259C24.897 20.5437 26.1818 18.7918 26.426 19.0421C26.6501 19.2717 26.9319 21.3917 27.0522 23.7541C27.3017 28.6467 27.0651 29.3645 23.9882 33.0397C20.4685 37.2443 20.536 37.1434 21.6344 36.553C22.1626 36.2693 23.541 35.2967 24.697 34.3923C25.8531 33.4879 26.9202 32.8719 27.0683 33.0232C27.2163 33.1749 27.0996 34.478 26.8093 35.9196C26.2762 38.5666 24.8961 40.3822 21.7918 42.5201C20.7265 43.2534 20.7887 43.2599 23.1125 42.6507C24.4542 42.2991 25.6313 42.0933 25.7288 42.1932C25.8263 42.2932 25.6702 43.1072 25.3818 44.0024C24.7699 45.9028 23.0141 47.4782 21.5079 47.4782C20.1107 47.4782 20.1514 48.2185 21.5682 48.5833C22.1832 48.7415 22.6863 49.0554 22.6863 49.2805C22.6863 49.8461 17.862 56.4218 15.6018 58.9374L13.7484 61L11.273 58.3296C9.91166 56.861 7.78375 54.1795 6.54403 52.3708L4.29044 49.0825L5.7739 48.4467L7.25691 47.8114L5.29179 47.3008C3.74482 46.8993 3.15001 46.451 2.49661 45.1937C1.80027 43.8539 1.37764 41.965 1.77836 41.9828C1.83963 41.9856 2.87944 42.2954 4.08829 42.6713C5.29715 43.0472 6.35351 43.2855 6.4358 43.2016C6.51809 43.1173 5.57086 42.3747 4.33114 41.5511C1.45591 39.642 0.777012 38.5446 0.447852 35.2737L0.180857 32.6239L2.3772 34.2589C3.58516 35.1578 5.07667 36.1533 5.69161 36.471C6.6366 36.9587 6.55834 36.7731 5.18624 35.2728C2.03149 31.8236 0.387476 29.1953 0.0829131 27.1162C-0.28784 24.5814 0.666994 18.3101 1.32174 18.9811C1.57174 19.2373 2.9577 21.4742 4.40135 23.9516C7.23544 28.8158 7.62409 29.1642 5.98902 25.3744C4.08919 20.9718 2.40045 15.1941 2.4009 13.1007Z" fill="#DDCFC6"/>
</svg>
