<svg width="401" height="61" viewBox="0 0 401 61" fill="none" xmlns="http://www.w3.org/2000/svg">
<rect x="228" y="11" width="1" height="40" fill="#DDCFC6"/>
<path fill-rule="evenodd" clip-rule="evenodd" d="M46.2683 29.9907L50.2392 37.8975H52.6341H55.0295L59.0205 29.9907L63.0116 22.0839L61.0733 22.1013L59.1355 22.1183L56.0389 28.7476C54.3358 32.3935 52.8233 35.3765 52.6775 35.3765C52.5322 35.3765 50.9579 32.3857 49.1793 28.7302L45.9463 22.0839H44.1216H42.2969L46.2683 29.9907ZM78.1427 30.1053V38.1267H87.0873H96.0319V36.2932V34.4598H88.6526H81.2733V33.0847V31.7096H87.9817H94.6902V30.1053V28.501H87.9817H81.2733V27.1259V25.7508H88.6526H96.0319V23.9173V22.0839H87.0873H78.1427V30.1053ZM110.79 30.0631V38.1267H112.579H114.368V35.8349V33.543H117.938H121.506L123.176 35.8349C124.778 38.0346 124.933 38.1267 127.012 38.1267C129.461 38.1267 129.462 38.1405 126.824 34.8659C125.15 32.7881 125.136 32.7368 125.989 31.9456C128.374 29.7336 128.083 25.3099 125.426 23.3673C124.107 22.4029 123.421 22.2998 117.387 22.1563L110.79 22V30.0631ZM144.424 27.6989C144.763 36.6453 145.888 37.8975 153.58 37.8975C157.473 37.8975 158.314 37.7605 159.394 36.951C161.499 35.3728 162.149 33.3844 162.49 27.4697L162.8 22.0839H160.993H159.185L159.026 27.6219C158.83 34.4153 158.793 34.4598 153.415 34.4598C148.113 34.4598 147.91 34.1976 147.91 27.3551V22.0839H146.061H144.212L144.424 27.6989ZM177.428 30.1053V38.1267H178.993H180.558V32.8284C180.558 29.9146 180.727 27.637 180.933 27.7676C181.139 27.8983 182.47 29.9733 183.89 32.3783C186.113 36.1438 186.636 36.7516 187.661 36.7516C188.691 36.7516 189.206 36.1388 191.524 32.1501L194.199 27.5481L194.325 32.8376L194.45 38.1267H196.225H198V30.1053V22.0839L195.652 22.0903L193.304 22.0967L190.621 26.9004C189.145 29.5424 187.835 31.7054 187.71 31.7068C187.585 31.7082 186.216 29.5438 184.667 26.8967L181.851 22.0839H179.639H177.428V30.1053ZM123.671 26.3008C124.521 27.1722 124.323 29.3224 123.342 29.8601C122.866 30.1209 120.653 30.3345 118.423 30.3345H114.368V28.0426V25.7508H118.751C121.564 25.7508 123.326 25.9479 123.671 26.3008Z" fill="#343A45"/>
<path d="M2.4009 13.1007C2.40135 11.9663 2.87988 8.51064 3.46441 5.42217C4.04849 2.33324 4.67551 -0.0388076 4.85798 0.150956C6.39331 1.7502 11.1214 16.1672 12.1684 22.4427C13.0821 27.9202 13.0248 30.7364 11.875 36.9518C11.2556 40.3006 10.8906 44.1225 10.8687 47.4874C10.8379 52.269 10.9412 52.98 11.9618 55.0151C12.5816 56.2513 13.3164 57.3404 13.595 57.4357C13.8732 57.5306 14.6536 56.4507 15.3289 55.0357C16.4197 52.7517 16.5543 51.9656 16.5315 48.0227C16.5177 45.5806 16.0655 41.0038 15.5275 37.8525C13.926 28.4716 14.5691 21.4952 18.0002 11.0381C19.2565 7.20842 22.3469 -0.234071 22.5808 0.00565418C23.0235 0.459437 24.8858 10.643 24.9037 12.7088C24.9251 15.1327 23.7623 19.2919 21.5834 24.5874C20.7596 26.5891 20.1568 28.2268 20.244 28.2268C20.3308 28.2268 21.6657 26.0665 23.2105 23.4259C24.897 20.5437 26.1818 18.7918 26.426 19.0421C26.6501 19.2717 26.9319 21.3917 27.0522 23.7541C27.3017 28.6467 27.0651 29.3645 23.9882 33.0397C20.4685 37.2443 20.536 37.1434 21.6344 36.553C22.1626 36.2693 23.541 35.2967 24.697 34.3923C25.8531 33.4879 26.9202 32.8719 27.0683 33.0232C27.2163 33.1749 27.0996 34.478 26.8093 35.9196C26.2762 38.5666 24.8961 40.3822 21.7918 42.5201C20.7265 43.2534 20.7887 43.2599 23.1125 42.6507C24.4542 42.2991 25.6313 42.0933 25.7288 42.1932C25.8263 42.2932 25.6702 43.1072 25.3818 44.0024C24.7699 45.9028 23.0141 47.4782 21.5079 47.4782C20.1107 47.4782 20.1514 48.2185 21.5682 48.5833C22.1832 48.7415 22.6863 49.0554 22.6863 49.2805C22.6863 49.8461 17.862 56.4218 15.6018 58.9374L13.7484 61L11.273 58.3296C9.91166 56.861 7.78375 54.1795 6.54403 52.3708L4.29044 49.0825L5.7739 48.4467L7.25691 47.8114L5.29179 47.3008C3.74482 46.8993 3.15001 46.451 2.49661 45.1937C1.80027 43.8539 1.37764 41.965 1.77836 41.9828C1.83963 41.9856 2.87944 42.2954 4.08829 42.6713C5.29715 43.0472 6.35351 43.2855 6.4358 43.2016C6.51809 43.1173 5.57086 42.3747 4.33114 41.5511C1.45591 39.642 0.777012 38.5446 0.447852 35.2737L0.180857 32.6239L2.3772 34.2589C3.58516 35.1578 5.07667 36.1533 5.69161 36.471C6.6366 36.9587 6.55834 36.7731 5.18624 35.2728C2.03149 31.8236 0.387476 29.1953 0.0829131 27.1162C-0.28784 24.5814 0.666994 18.3101 1.32174 18.9811C1.57174 19.2373 2.9577 21.4742 4.40135 23.9516C7.23544 28.8158 7.62409 29.1642 5.98902 25.3744C4.08919 20.9718 2.40045 15.1941 2.4009 13.1007Z" fill="#DDCFC6"/>
<path d="M265.516 21C265.404 20.672 265.288 20.348 265.168 20.028C265.048 19.708 264.932 19.38 264.82 19.044H261.316C261.204 19.38 261.088 19.712 260.968 20.04C260.856 20.36 260.744 20.68 260.632 21H259.06C259.372 20.112 259.668 19.292 259.948 18.54C260.228 17.788 260.5 17.076 260.764 16.404C261.036 15.732 261.304 15.092 261.568 14.484C261.832 13.876 262.104 13.276 262.384 12.684H263.812C264.092 13.276 264.364 13.876 264.628 14.484C264.892 15.092 265.156 15.732 265.42 16.404C265.692 17.076 265.968 17.788 266.248 18.54C266.536 19.292 266.836 20.112 267.148 21H265.516ZM263.068 14.292C262.884 14.716 262.672 15.232 262.432 15.84C262.2 16.448 261.956 17.108 261.7 17.82H264.436C264.18 17.108 263.932 16.444 263.692 15.828C263.452 15.212 263.244 14.7 263.068 14.292ZM276.915 12.684V13.992H274.359V21H272.835V13.992H270.279V12.684H276.915ZM281.669 21V12.684H287.009V13.968H283.181V16.02H286.589V17.28H283.181V19.716H287.297V21H281.669ZM295.468 13.98C295.444 14.524 295.416 15.08 295.384 15.648C295.352 16.208 295.292 16.752 295.204 17.28C295.124 17.8 295.004 18.292 294.844 18.756C294.684 19.22 294.464 19.628 294.184 19.98C293.904 20.324 293.552 20.6 293.128 20.808C292.712 21.016 292.2 21.128 291.592 21.144L291.424 19.824C291.712 19.792 291.964 19.736 292.18 19.656C292.396 19.576 292.584 19.472 292.744 19.344C292.904 19.208 293.044 19.044 293.164 18.852C293.284 18.652 293.388 18.42 293.476 18.156C293.692 17.532 293.836 16.752 293.908 15.816C293.98 14.88 294.016 13.836 294.016 12.684H299.212V21H297.688V13.98H295.468ZM310.962 18.384C310.962 19.272 310.626 19.948 309.954 20.412C309.29 20.868 308.354 21.096 307.146 21.096C306.81 21.096 306.43 21.076 306.006 21.036C305.59 20.996 305.19 20.932 304.806 20.844V12.684H306.318V15.672C306.454 15.656 306.582 15.648 306.702 15.648C306.822 15.648 306.946 15.648 307.074 15.648C309.666 15.648 310.962 16.56 310.962 18.384ZM306.966 16.944C306.87 16.944 306.766 16.944 306.654 16.944C306.542 16.944 306.43 16.952 306.318 16.968V19.776C306.43 19.784 306.558 19.792 306.702 19.8C306.854 19.8 307.034 19.8 307.242 19.8C307.522 19.8 307.79 19.78 308.046 19.74C308.31 19.692 308.538 19.616 308.73 19.512C308.93 19.4 309.09 19.256 309.21 19.08C309.33 18.896 309.39 18.664 309.39 18.384C309.39 18.104 309.33 17.872 309.21 17.688C309.098 17.504 308.934 17.356 308.718 17.244C308.51 17.132 308.258 17.056 307.962 17.016C307.666 16.968 307.334 16.944 306.966 16.944ZM315.988 21V12.684H321.328V13.968H317.5V16.02H320.908V17.28H317.5V19.716H321.616V21H315.988ZM266.572 26.684V35H265.06V27.98H261.508V35H259.996V26.684H266.572ZM274.514 26.6C275.722 26.6 276.646 26.82 277.286 27.26C277.934 27.7 278.258 28.388 278.258 29.324C278.258 29.812 278.17 30.232 277.994 30.584C277.826 30.928 277.578 31.212 277.25 31.436C276.922 31.652 276.522 31.812 276.05 31.916C275.578 32.02 275.038 32.072 274.43 32.072H273.674V35H272.162V26.804C272.514 26.724 272.902 26.672 273.326 26.648C273.758 26.616 274.154 26.6 274.514 26.6ZM274.622 27.908C274.238 27.908 273.922 27.92 273.674 27.944V30.776H274.406C275.134 30.776 275.694 30.676 276.086 30.476C276.478 30.268 276.674 29.88 276.674 29.312C276.674 29.04 276.622 28.812 276.518 28.628C276.414 28.444 276.27 28.3 276.086 28.196C275.902 28.092 275.682 28.02 275.426 27.98C275.178 27.932 274.91 27.908 274.622 27.908ZM283.239 35V26.684H284.739V32.204C285.011 31.772 285.319 31.308 285.663 30.812C286.015 30.308 286.375 29.808 286.743 29.312C287.119 28.816 287.491 28.34 287.859 27.884C288.227 27.42 288.571 27.02 288.891 26.684H290.127V35H288.639V29.048C288.303 29.448 287.947 29.9 287.571 30.404C287.203 30.9 286.839 31.416 286.479 31.952C286.119 32.48 285.771 33.008 285.435 33.536C285.099 34.056 284.795 34.544 284.523 35H283.239ZM298.074 26.6C299.282 26.6 300.206 26.82 300.846 27.26C301.494 27.7 301.818 28.388 301.818 29.324C301.818 29.812 301.73 30.232 301.554 30.584C301.386 30.928 301.138 31.212 300.81 31.436C300.482 31.652 300.082 31.812 299.61 31.916C299.138 32.02 298.598 32.072 297.99 32.072H297.234V35H295.722V26.804C296.074 26.724 296.462 26.672 296.886 26.648C297.318 26.616 297.714 26.6 298.074 26.6ZM298.182 27.908C297.798 27.908 297.482 27.92 297.234 27.944V30.776H297.966C298.694 30.776 299.254 30.676 299.646 30.476C300.038 30.268 300.234 29.88 300.234 29.312C300.234 29.04 300.182 28.812 300.078 28.628C299.974 28.444 299.83 28.3 299.646 28.196C299.462 28.092 299.242 28.02 298.986 27.98C298.738 27.932 298.47 27.908 298.182 27.908ZM308.034 30.836C308.034 31.292 308.09 31.708 308.202 32.084C308.314 32.452 308.474 32.768 308.682 33.032C308.898 33.288 309.158 33.488 309.462 33.632C309.766 33.776 310.11 33.848 310.494 33.848C310.87 33.848 311.21 33.776 311.514 33.632C311.818 33.488 312.074 33.288 312.282 33.032C312.498 32.768 312.662 32.452 312.774 32.084C312.886 31.708 312.942 31.292 312.942 30.836C312.942 30.38 312.886 29.968 312.774 29.6C312.662 29.224 312.498 28.908 312.282 28.652C312.074 28.388 311.818 28.184 311.514 28.04C311.21 27.896 310.87 27.824 310.494 27.824C310.11 27.824 309.766 27.896 309.462 28.04C309.158 28.184 308.898 28.388 308.682 28.652C308.474 28.916 308.314 29.232 308.202 29.6C308.09 29.968 308.034 30.38 308.034 30.836ZM314.526 30.836C314.526 31.548 314.418 32.176 314.202 32.72C313.994 33.264 313.706 33.72 313.338 34.088C312.978 34.448 312.554 34.72 312.066 34.904C311.578 35.088 311.058 35.18 310.506 35.18C309.954 35.18 309.43 35.088 308.934 34.904C308.446 34.72 308.018 34.448 307.65 34.088C307.29 33.72 307.002 33.264 306.786 32.72C306.57 32.176 306.462 31.548 306.462 30.836C306.462 30.124 306.57 29.5 306.786 28.964C307.002 28.42 307.294 27.964 307.662 27.596C308.038 27.228 308.47 26.952 308.958 26.768C309.446 26.584 309.962 26.492 310.506 26.492C311.05 26.492 311.566 26.584 312.054 26.768C312.542 26.952 312.966 27.228 313.326 27.596C313.694 27.964 313.986 28.42 314.202 28.964C314.418 29.5 314.526 30.124 314.526 30.836ZM318.664 33.716H319.696C320.056 33.22 320.332 32.7 320.524 32.156C320.724 31.604 320.868 31.036 320.956 30.452C321.052 29.86 321.108 29.252 321.124 28.628C321.14 27.996 321.148 27.348 321.148 26.684H326.248V33.716H327.484V37.22H326.032V35H320.116V37.22H318.664V33.716ZM322.6 27.98C322.576 28.46 322.548 28.952 322.516 29.456C322.484 29.96 322.424 30.46 322.336 30.956C322.256 31.444 322.14 31.924 321.988 32.396C321.836 32.86 321.628 33.3 321.364 33.716H324.76V27.98H322.6ZM337.404 26.684H338.916V35H337.404V31.316H333.792V35H332.28V26.684H333.792V30.008H337.404V26.684ZM345.741 30.836C345.741 31.292 345.797 31.708 345.909 32.084C346.021 32.452 346.181 32.768 346.389 33.032C346.605 33.288 346.865 33.488 347.169 33.632C347.473 33.776 347.817 33.848 348.201 33.848C348.577 33.848 348.917 33.776 349.221 33.632C349.525 33.488 349.781 33.288 349.989 33.032C350.205 32.768 350.369 32.452 350.481 32.084C350.593 31.708 350.649 31.292 350.649 30.836C350.649 30.38 350.593 29.968 350.481 29.6C350.369 29.224 350.205 28.908 349.989 28.652C349.781 28.388 349.525 28.184 349.221 28.04C348.917 27.896 348.577 27.824 348.201 27.824C347.817 27.824 347.473 27.896 347.169 28.04C346.865 28.184 346.605 28.388 346.389 28.652C346.181 28.916 346.021 29.232 345.909 29.6C345.797 29.968 345.741 30.38 345.741 30.836ZM352.233 30.836C352.233 31.548 352.125 32.176 351.909 32.72C351.701 33.264 351.413 33.72 351.045 34.088C350.685 34.448 350.261 34.72 349.773 34.904C349.285 35.088 348.765 35.18 348.213 35.18C347.661 35.18 347.137 35.088 346.641 34.904C346.153 34.72 345.725 34.448 345.357 34.088C344.997 33.72 344.709 33.264 344.493 32.72C344.277 32.176 344.169 31.548 344.169 30.836C344.169 30.124 344.277 29.5 344.493 28.964C344.709 28.42 345.001 27.964 345.369 27.596C345.745 27.228 346.177 26.952 346.665 26.768C347.153 26.584 347.669 26.492 348.213 26.492C348.757 26.492 349.273 26.584 349.761 26.768C350.249 26.952 350.673 27.228 351.033 27.596C351.401 27.964 351.693 28.42 351.909 28.964C352.125 29.5 352.233 30.124 352.233 30.836ZM359.003 35H357.491V26.684H362.771V27.98H359.003V35ZM368.468 30.836C368.468 31.292 368.524 31.708 368.636 32.084C368.748 32.452 368.908 32.768 369.116 33.032C369.332 33.288 369.592 33.488 369.896 33.632C370.2 33.776 370.544 33.848 370.928 33.848C371.304 33.848 371.644 33.776 371.948 33.632C372.252 33.488 372.508 33.288 372.716 33.032C372.932 32.768 373.096 32.452 373.208 32.084C373.32 31.708 373.376 31.292 373.376 30.836C373.376 30.38 373.32 29.968 373.208 29.6C373.096 29.224 372.932 28.908 372.716 28.652C372.508 28.388 372.252 28.184 371.948 28.04C371.644 27.896 371.304 27.824 370.928 27.824C370.544 27.824 370.2 27.896 369.896 28.04C369.592 28.184 369.332 28.388 369.116 28.652C368.908 28.916 368.748 29.232 368.636 29.6C368.524 29.968 368.468 30.38 368.468 30.836ZM374.96 30.836C374.96 31.548 374.852 32.176 374.636 32.72C374.428 33.264 374.14 33.72 373.772 34.088C373.412 34.448 372.988 34.72 372.5 34.904C372.012 35.088 371.492 35.18 370.94 35.18C370.388 35.18 369.864 35.088 369.368 34.904C368.88 34.72 368.452 34.448 368.084 34.088C367.724 33.72 367.436 33.264 367.22 32.72C367.004 32.176 366.896 31.548 366.896 30.836C366.896 30.124 367.004 29.5 367.22 28.964C367.436 28.42 367.728 27.964 368.096 27.596C368.472 27.228 368.904 26.952 369.392 26.768C369.88 26.584 370.396 26.492 370.94 26.492C371.484 26.492 372 26.584 372.488 26.768C372.976 26.952 373.4 27.228 373.76 27.596C374.128 27.964 374.42 28.42 374.636 28.964C374.852 29.5 374.96 30.124 374.96 30.836ZM264.964 49C264.756 48.68 264.516 48.344 264.244 47.992C263.972 47.64 263.684 47.3 263.38 46.972C263.084 46.644 262.776 46.332 262.456 46.036C262.136 45.74 261.82 45.484 261.508 45.268V49H259.996V40.684H261.508V44.116C261.772 43.852 262.048 43.572 262.336 43.276C262.624 42.972 262.908 42.668 263.188 42.364C263.476 42.052 263.748 41.752 264.004 41.464C264.26 41.176 264.492 40.916 264.7 40.684H266.512C266.248 40.988 265.968 41.304 265.672 41.632C265.376 41.96 265.072 42.292 264.76 42.628C264.448 42.956 264.132 43.284 263.812 43.612C263.5 43.94 263.192 44.252 262.888 44.548C263.224 44.804 263.564 45.104 263.908 45.448C264.26 45.784 264.604 46.148 264.94 46.54C265.276 46.924 265.596 47.328 265.9 47.752C266.212 48.168 266.496 48.584 266.752 49H264.964ZM277.296 49C277.184 48.672 277.068 48.348 276.948 48.028C276.828 47.708 276.712 47.38 276.6 47.044H273.096C272.984 47.38 272.868 47.712 272.748 48.04C272.636 48.36 272.524 48.68 272.412 49H270.84C271.152 48.112 271.448 47.292 271.728 46.54C272.008 45.788 272.28 45.076 272.544 44.404C272.816 43.732 273.084 43.092 273.348 42.484C273.612 41.876 273.884 41.276 274.164 40.684H275.592C275.872 41.276 276.144 41.876 276.408 42.484C276.672 43.092 276.936 43.732 277.2 44.404C277.472 45.076 277.748 45.788 278.028 46.54C278.316 47.292 278.616 48.112 278.928 49H277.296ZM274.848 42.292C274.664 42.716 274.452 43.232 274.212 43.84C273.98 44.448 273.736 45.108 273.48 45.82H276.216C275.96 45.108 275.712 44.444 275.472 43.828C275.232 43.212 275.024 42.7 274.848 42.292ZM285.391 40.684C285.567 40.988 285.763 41.36 285.979 41.8C286.195 42.24 286.415 42.704 286.639 43.192C286.863 43.672 287.083 44.164 287.299 44.668C287.523 45.164 287.727 45.624 287.911 46.048C288.095 45.624 288.295 45.164 288.511 44.668C288.727 44.164 288.947 43.672 289.171 43.192C289.395 42.704 289.615 42.24 289.831 41.8C290.047 41.36 290.243 40.988 290.419 40.684H291.787C291.859 41.292 291.927 41.94 291.991 42.628C292.055 43.308 292.111 44.008 292.159 44.728C292.215 45.44 292.263 46.16 292.303 46.888C292.351 47.608 292.391 48.312 292.423 49H290.935C290.903 48.032 290.863 47.036 290.815 46.012C290.775 44.988 290.711 43.996 290.623 43.036C290.535 43.22 290.431 43.44 290.311 43.696C290.191 43.952 290.063 44.232 289.927 44.536C289.791 44.832 289.651 45.14 289.507 45.46C289.371 45.78 289.235 46.092 289.099 46.396C288.971 46.692 288.851 46.972 288.739 47.236C288.627 47.492 288.531 47.712 288.451 47.896H287.323C287.243 47.712 287.147 47.488 287.035 47.224C286.923 46.96 286.799 46.68 286.663 46.384C286.535 46.08 286.399 45.768 286.255 45.448C286.119 45.128 285.983 44.82 285.847 44.524C285.711 44.228 285.583 43.952 285.463 43.696C285.343 43.432 285.239 43.212 285.151 43.036C285.063 43.996 284.995 44.988 284.947 46.012C284.907 47.036 284.871 48.032 284.839 49H283.351C283.383 48.312 283.419 47.6 283.459 46.864C283.507 46.128 283.555 45.4 283.603 44.68C283.659 43.952 283.719 43.248 283.783 42.568C283.847 41.888 283.915 41.26 283.987 40.684H285.391ZM302.908 40.684H304.42V49H302.908V45.316H299.296V49H297.784V40.684H299.296V44.008H302.908V40.684ZM313.621 40.6C313.949 40.6 314.321 40.616 314.737 40.648C315.153 40.672 315.545 40.724 315.913 40.804V49H314.401V45.88H313.525C313.421 45.88 313.313 45.88 313.201 45.88C313.089 45.872 312.985 45.86 312.889 45.844C312.729 46.036 312.569 46.256 312.409 46.504C312.249 46.744 312.089 47.004 311.929 47.284C311.777 47.556 311.621 47.84 311.461 48.136C311.309 48.424 311.161 48.712 311.017 49H309.409C309.553 48.688 309.709 48.372 309.877 48.052C310.045 47.732 310.213 47.424 310.381 47.128C310.557 46.824 310.729 46.544 310.897 46.288C311.073 46.024 311.233 45.8 311.377 45.616C310.833 45.416 310.433 45.12 310.177 44.728C309.921 44.336 309.793 43.852 309.793 43.276C309.793 42.828 309.881 42.436 310.057 42.1C310.241 41.764 310.497 41.488 310.825 41.272C311.161 41.048 311.565 40.88 312.037 40.768C312.509 40.656 313.037 40.6 313.621 40.6ZM313.513 41.908C313.209 41.908 312.925 41.932 312.661 41.98C312.405 42.02 312.181 42.092 311.989 42.196C311.797 42.3 311.645 42.44 311.533 42.616C311.429 42.792 311.377 43.008 311.377 43.264C311.377 43.536 311.429 43.76 311.533 43.936C311.645 44.112 311.801 44.252 312.001 44.356C312.209 44.46 312.457 44.532 312.745 44.572C313.041 44.612 313.373 44.632 313.741 44.632H314.401V41.944C314.121 41.92 313.825 41.908 313.513 41.908Z" fill="#8B8B8B"/>
</svg>
